<?xml version="1.0" standalone="yes"?>

<svg version="1.1" viewBox="0.0 0.0 960.0 720.0" fill="none" stroke="none" stroke-linecap="square" stroke-miterlimit="10" xmlns="http://www.w3.org/2000/svg" xmlns:xlink="http://www.w3.org/1999/xlink"><clipPath id="p.0"><path d="m0 0l960.0 0l0 720.0l-960.0 0l0 -720.0z" clip-rule="nonzero"></path></clipPath><g clip-path="url(#p.0)"><path fill="#000000" fill-opacity="0.0" d="m0 0l960.0 0l0 720.0l-960.0 0z" fill-rule="evenodd"></path><path fill="#d9edff" fill-opacity="0.8115" d="m51.427822 61.067005l0 0c0 -4.732151 3.8361664 -8.568317 8.568317 -8.568317l838.92633 0c2.272461 0 4.4518433 0.90272903 6.058716 2.5096016c1.6068726 1.6068726 2.5095825 3.786255 2.5095825 6.058716l0 601.06805c0 4.7321777 -3.8361206 8.568359 -8.568298 8.568359l-838.92633 0c-4.732151 0 -8.568317 -3.8361816 -8.568317 -8.568359z" fill-rule="evenodd"></path><path stroke="#999999" stroke-width="1.0" stroke-linejoin="round" stroke-linecap="butt" d="m51.427822 61.067005l0 0c0 -4.732151 3.8361664 -8.568317 8.568317 -8.568317l838.92633 0c2.272461 0 4.4518433 0.90272903 6.058716 2.5096016c1.6068726 1.6068726 2.5095825 3.786255 2.5095825 6.058716l0 601.06805c0 4.7321777 -3.8361206 8.568359 -8.568298 8.568359l-838.92633 0c-4.732151 0 -8.568317 -3.8361816 -8.568317 -8.568359z" fill-rule="evenodd"></path></g></svg>

