<?xml version="1.0" standalone="no"?>
<!DOCTYPE svg PUBLIC "-//W3C//DTD SVG 20010904//EN"
 "http://www.w3.org/TR/2001/REC-SVG-20010904/DTD/svg10.dtd">
<svg version="1.0" xmlns="http://www.w3.org/2000/svg"
 width="1500.000000pt" height="1500.000000pt" viewBox="0 0 1500.000000 1500.000000"
 preserveAspectRatio="xMidYMid meet">
<metadata>
Created by potrace 1.11, written by Peter Selinger 2001-2013
</metadata>
<g transform="translate(0.000000,1500.000000) scale(0.100000,-0.100000)"
fill="#000000" stroke="none">
<path d="M7218 14925 c-1 -1 -68 -6 -148 -10 -80 -4 -152 -8 -160 -10 -8 -2
-55 -6 -104 -10 -49 -4 -96 -8 -105 -10 -9 -1 -47 -6 -86 -10 -38 -4 -77 -8
-85 -10 -8 -2 -37 -6 -65 -9 -58 -8 -68 -10 -195 -31 -1152 -195 -2248 -664
-3185 -1362 -1042 -777 -1872 -1823 -2375 -2994 -17 -41 -37 -87 -45 -104
-110 -251 -253 -678 -340 -1020 -95 -370 -177 -846 -200 -1155 -4 -47 -8 -95
-10 -107 -19 -122 -27 -744 -12 -998 8 -136 10 -158 21 -275 3 -30 8 -82 11
-115 46 -473 193 -1130 363 -1620 145 -417 361 -898 541 -1208 28 -49 51 -90
51 -92 0 -8 185 -304 261 -417 113 -168 352 -494 389 -528 3 -3 31 -36 62 -75
31 -38 65 -79 75 -90 10 -12 47 -54 83 -95 297 -342 694 -708 1099 -1015 242
-183 609 -421 876 -567 144 -79 519 -261 661 -322 524 -222 1107 -395 1641
-486 35 -5 75 -12 90 -15 16 -3 48 -7 73 -11 25 -3 56 -7 70 -10 14 -2 43 -6
65 -9 22 -3 60 -7 85 -10 86 -11 105 -13 190 -20 47 -4 99 -9 115 -11 212 -25
890 -25 1155 1 19 2 71 6 115 10 44 4 91 8 105 10 14 2 52 6 85 10 64 7 84 10
155 20 25 4 56 8 70 10 34 5 310 53 335 59 342 74 476 108 748 192 813 250
1617 665 2292 1183 109 83 195 151 205 161 5 5 87 73 149 125 254 210 657 628
922 955 189 234 456 613 574 817 6 10 19 33 31 53 100 169 282 515 352 670 11
25 37 80 56 123 20 43 36 81 36 83 0 3 10 26 21 52 41 90 128 319 187 497 145
429 257 902 317 1335 3 25 8 56 10 70 3 24 10 80 19 160 3 19 7 73 11 120 4
47 8 95 10 108 26 161 25 1017 0 1175 -2 12 -6 56 -10 97 -3 41 -7 89 -9 105
-2 17 -7 57 -11 90 -16 146 -52 368 -86 545 -188 962 -563 1873 -1109 2695
-95 142 -353 496 -391 535 -8 8 -30 35 -49 60 -19 25 -39 50 -45 56 -5 6 -35
39 -65 75 -230 266 -457 495 -771 774 -247 220 -696 545 -1024 742 -260 156
-647 355 -880 453 -55 23 -113 48 -130 55 -73 30 -97 40 -210 82 -412 155
-887 285 -1312 358 -134 24 -136 24 -173 29 -85 12 -196 28 -210 31 -8 1 -49
6 -91 9 -41 4 -89 9 -105 11 -16 2 -76 6 -134 10 -58 4 -121 9 -140 12 -41 5
-707 13 -712 8z"/>
</g>
</svg>
