<?xml version="1.0" standalone="no"?>
<!DOCTYPE svg PUBLIC "-//W3C//DTD SVG 20010904//EN"
 "http://www.w3.org/TR/2001/REC-SVG-20010904/DTD/svg10.dtd">
<svg version="1.0" xmlns="http://www.w3.org/2000/svg"
 width="1500.000000pt" height="1500.000000pt" viewBox="0 0 1500.000000 1500.000000"
 preserveAspectRatio="xMidYMid meet">
<metadata>
Created by potrace 1.11, written by Peter Selinger 2001-2013
</metadata>
<g transform="translate(0.000000,1500.000000) scale(0.100000,-0.100000)"
fill="#000000" stroke="none">
<path d="M7000 14919 c-1180 -83 -2314 -438 -3309 -1036 -555 -334 -968 -657
-1437 -1127 -321 -322 -506 -536 -740 -856 -754 -1033 -1232 -2241 -1383
-3500 -41 -339 -46 -437 -46 -900 0 -463 5 -561 46 -900 151 -1259 629 -2467
1383 -3500 234 -320 419 -534 740 -856 469 -470 882 -793 1437 -1127 1003
-603 2129 -954 3329 -1037 187 -13 753 -13 940 0 1200 83 2326 434 3329 1037
555 334 968 657 1437 1127 321 322 506 536 740 856 754 1033 1232 2241 1383
3500 41 339 46 437 46 900 0 463 -5 561 -46 900 -151 1259 -629 2467 -1383
3500 -234 320 -419 534 -740 856 -469 470 -882 793 -1437 1127 -1003 603
-2129 954 -3329 1037 -168 11 -791 11 -960 -1z"/>
</g>
</svg>
